<svg width="156" height="54" viewBox="0 0 156 54" fill="none" xmlns="http://www.w3.org/2000/svg">
<g clip-path="url(#clip0_634_4446)">
<mask id="mask0_634_4446" style="mask-type:luminance" maskUnits="userSpaceOnUse" x="2" y="0" width="153" height="54">
<path d="M154.507 0.0927734H2.16406V53.5662H154.507V0.0927734Z" fill="white"/>
</mask>
<g mask="url(#mask0_634_4446)">
<path d="M60.894 31.4781V27.9293H69.1601C70.4248 27.9293 71.4105 27.5656 72.1167 26.8342C72.8231 26.1026 73.1804 25.1413 73.1804 23.9501C73.1804 22.7588 72.8272 21.7765 72.1167 21.0659C71.4063 20.3553 70.4208 20.0001 69.1601 20.0001H58.2618V37.7186H54.6934V16.3301H69.1601C70.3511 16.3301 71.4105 16.5098 72.3467 16.8651C73.2788 17.2204 74.0673 17.722 74.712 18.3657C75.3526 19.0095 75.8453 19.7952 76.1861 20.7147C76.527 21.6386 76.6953 22.6751 76.6953 23.8329C76.6953 24.9909 76.523 26.0024 76.1861 26.9344C75.8453 27.8666 75.3526 28.6692 74.712 29.3462C74.0713 30.0193 73.283 30.5418 72.3467 30.918C71.4145 31.294 70.3511 31.4822 69.1601 31.4822H60.894V31.4781Z" fill="white"/>
<path d="M88.4017 37.7147V29.3424L77.4746 16.3262H82.3161L90.3276 25.9943L98.368 16.3262H102.955L91.9949 29.3424V37.7147H88.4017Z" fill="white"/>
<path d="M115.352 37.7147V19.992H105.883V16.3262H128.427V19.992H118.945V37.7147H115.352Z" fill="white"/>
<path d="M150.926 16.3262H154.507V37.7147H150.926V16.3262Z" fill="white"/>
<path d="M135.469 37.7148V28.2264H148.795V24.9786H135.469V16.3262H131.889V37.7148H135.469Z" fill="white"/>
<path d="M23.1764 0.0927734C19.3492 0.0927734 15.7603 1.13357 12.6682 2.956C10.6889 4.11801 8.91495 5.60188 7.41613 7.33654C4.14745 11.1068 2.16406 16.06 2.16406 21.4813V37.5238L7.41613 42.8698V21.4813C7.41613 16.7329 9.44469 12.4611 12.6682 9.52262C14.1834 8.14325 15.9656 7.05648 17.9202 6.35425C19.5628 5.76072 21.3327 5.43886 23.1723 5.43886C31.8737 5.43886 38.9326 12.6199 38.9326 21.4813C38.9326 30.3427 31.8779 37.5238 23.1723 37.5238V42.8698C34.777 42.8698 44.1847 33.2937 44.1847 21.4813C44.1847 9.66891 34.7852 0.0927734 23.1764 0.0927734Z" fill="white"/>
<path d="M28.4281 21.4818C28.4281 24.4329 26.0751 26.8279 23.176 26.8279V32.1739C28.9784 32.1739 33.6843 27.3837 33.6843 21.4777C33.6843 15.5714 28.9784 10.7812 23.176 10.7812C21.2625 10.7812 19.4679 11.2996 17.9239 12.215C14.7826 14.0625 12.6719 17.5193 12.6719 21.4777V48.2165L17.3942 53.0234L17.9239 53.5624V21.4818C17.9239 18.5308 20.277 16.1357 23.176 16.1357C26.0751 16.1357 28.4281 18.5308 28.4281 21.4818Z" fill="white"/>
</g>
</g>
<defs>
<clipPath id="clip0_634_4446">
<rect width="155.328" height="53.4734" fill="white" transform="translate(0.671875 0.0927734)"/>
</clipPath>
</defs>
</svg>
